<?xml version="1.0" encoding="UTF-8"?> <svg xmlns="http://www.w3.org/2000/svg" width="300" height="115" viewBox="0 0 300 115" fill="none"><g clip-path="url(#clip0_641_170)"><mask id="mask0_641_170" style="mask-type:luminance" maskUnits="userSpaceOnUse" x="0" y="0" width="300" height="115"><path d="M299.234 0H0V114.314H299.234V0Z" fill="white"></path></mask><g mask="url(#mask0_641_170)"><path d="M12.7857 100.099C12.4633 99.5873 12.051 99.1381 11.5687 98.773C11.0926 98.4185 10.563 98.1424 9.99974 97.955C9.41249 97.7758 8.80172 97.6855 8.18774 97.687C7.1613 97.6548 6.14319 97.8807 5.22674 98.344C4.42409 98.7535 3.72825 99.3449 3.19474 100.071C2.66276 100.807 2.26965 101.635 2.03474 102.512C1.53155 104.336 1.53155 106.261 2.03474 108.085C2.26521 108.966 2.65867 109.795 3.19474 110.531C3.72692 111.261 4.42157 111.856 5.22374 112.271C6.14255 112.727 7.15927 112.951 8.18474 112.923C8.93442 112.935 9.67815 112.788 10.3677 112.494C10.9999 112.208 11.5705 111.802 12.0477 111.299C12.525 110.782 12.9099 110.186 13.1857 109.539C13.4817 108.846 13.6705 108.111 13.7457 107.361H15.3997C15.3022 108.359 15.0456 109.336 14.6397 110.253C14.2829 111.07 13.7738 111.811 13.1397 112.437C12.5163 113.042 11.7754 113.513 10.9627 113.82C10.0751 114.154 9.13319 114.321 8.18474 114.312C6.94884 114.336 5.72353 114.08 4.60074 113.563C3.61434 113.104 2.7418 112.432 2.04574 111.596C1.35645 110.746 0.836405 109.772 0.513737 108.727C-0.172548 106.496 -0.172548 104.11 0.513737 101.879C0.836367 100.832 1.35638 99.8559 2.04574 99.004C2.73798 98.1595 3.6107 97.4809 4.59974 97.018C5.72432 96.5076 6.94901 96.2558 8.18374 96.281C9.0009 96.2779 9.81392 96.3973 10.5957 96.635C11.3646 96.8736 12.0875 97.2408 12.7337 97.721C13.3758 98.1992 13.9191 98.7972 14.3337 99.482C14.7787 100.212 15.0576 101.032 15.1507 101.882H13.4997C13.3686 101.25 13.1269 100.647 12.7857 100.099Z" fill="white"></path><path d="M29.6949 96.6309L36.4949 113.967H34.7189L32.6099 108.582H24.7159L22.6299 113.967H20.8809L27.8509 96.6309H29.6949ZM32.0509 107.177L28.7019 98.2888L25.2259 107.177H32.0509Z" fill="white"></path><path d="M44.1138 110.504C44.3859 111.074 44.7988 111.566 45.3138 111.933C45.8615 112.301 46.4745 112.561 47.1198 112.699C47.8542 112.856 48.6037 112.932 49.3548 112.927C49.8541 112.921 50.3511 112.858 50.8358 112.738C51.3635 112.612 51.8673 112.402 52.3278 112.115C52.7863 111.835 53.1814 111.464 53.4878 111.023C53.8011 110.545 53.9605 109.982 53.9448 109.411C53.9569 108.967 53.8439 108.53 53.6188 108.148C53.4013 107.791 53.111 107.484 52.7668 107.248C52.4101 106.999 52.0216 106.799 51.6118 106.653C51.2083 106.503 50.7962 106.377 50.3778 106.276L46.5138 105.328C46.0163 105.194 45.5263 105.033 45.0458 104.848C44.5857 104.66 44.162 104.393 43.7938 104.06C43.4297 103.726 43.138 103.321 42.9368 102.871C42.7018 102.33 42.5904 101.744 42.6108 101.156C42.6213 100.65 42.7021 100.147 42.8508 99.6637C43.0308 99.0693 43.3414 98.5227 43.7598 98.0637C44.2743 97.5138 44.9026 97.0828 45.6008 96.8007C46.5443 96.4154 47.5593 96.236 48.5778 96.2747C49.4069 96.2712 50.2323 96.3847 51.0298 96.6117C51.7698 96.8169 52.4627 97.1643 53.0698 97.6347C53.6843 98.1063 54.1783 98.7169 54.5112 99.4164C54.8441 100.116 55.0064 100.884 54.9848 101.659H53.3398C53.321 101.053 53.1665 100.46 52.8878 99.9217C52.6343 99.4414 52.2795 99.0221 51.8478 98.6927C51.4071 98.349 50.9047 98.0927 50.3678 97.9377C49.7975 97.7617 49.2035 97.675 48.6068 97.6807C48.0566 97.6796 47.5081 97.741 46.9718 97.8637C46.4773 97.9723 46.0067 98.1699 45.5828 98.4467C45.1808 98.713 44.8507 99.0743 44.6218 99.4987C44.3648 100.002 44.2389 100.562 44.2558 101.127C44.2458 101.489 44.3179 101.848 44.4668 102.179C44.5945 102.476 44.788 102.74 45.0328 102.951C45.2858 103.162 45.5694 103.333 45.8738 103.459C46.1984 103.593 46.5349 103.696 46.8788 103.768L51.1088 104.819C51.7002 104.967 52.2777 105.166 52.8348 105.414C53.3543 105.632 53.8394 105.925 54.2748 106.283C54.6865 106.634 55.0162 107.071 55.2408 107.563C55.4939 108.136 55.6149 108.759 55.5948 109.386C55.5888 109.644 55.5681 109.901 55.5328 110.157C55.4843 110.514 55.386 110.862 55.2408 111.192C55.0697 111.584 54.8507 111.953 54.5888 112.292C54.268 112.702 53.8723 113.047 53.4228 113.31C52.8485 113.636 52.2306 113.878 51.5878 114.03C49.7869 114.428 47.9182 114.402 46.1288 113.956C45.3171 113.752 44.5551 113.387 43.8888 112.881C43.2689 112.385 42.782 111.743 42.4718 111.013C42.1266 110.142 41.984 109.204 42.0548 108.27H43.6958C43.659 109.037 43.8018 109.802 44.1128 110.505" fill="white"></path><path d="M69.9896 96.6309L76.7896 113.967H75.0216L72.9126 108.582H65.0216L62.9356 113.967H61.1816L68.1436 96.6309H69.9896ZM72.3506 107.177L68.9946 98.2888L65.5216 107.177H72.3506Z" fill="white"></path><path d="M97.2063 96.6377L102.956 111.831L108.934 96.6377H111.363V113.969H109.706V98.9987H109.658L103.731 113.969H102.182L96.4823 98.9987H96.4313V113.969H94.7793V96.6377H97.2063Z" fill="white"></path><path d="M126.528 96.6309L133.328 113.967H131.562L129.453 108.582H121.56L119.474 113.967H117.725L124.693 96.6309H126.528ZM128.889 107.177L125.533 98.2888L122.064 107.177H128.889Z" fill="white"></path><path d="M147.7 96.6459C148.385 96.6387 149.068 96.7272 149.729 96.9089C150.333 97.0702 150.902 97.3458 151.403 97.7209C151.889 98.0934 152.28 98.575 152.546 99.1269C152.842 99.7612 152.987 100.456 152.969 101.156C152.995 102.177 152.696 103.179 152.117 104.02C151.514 104.85 150.608 105.409 149.596 105.575V105.626C150.091 105.681 150.571 105.832 151.008 106.072C151.363 106.286 151.673 106.57 151.917 106.906C152.158 107.262 152.328 107.662 152.417 108.084C152.527 108.561 152.596 109.046 152.623 109.535C152.64 109.821 152.657 110.181 152.674 110.599C152.691 111.017 152.72 111.439 152.774 111.873C152.82 112.282 152.897 112.687 153.003 113.085C153.082 113.407 153.228 113.709 153.431 113.971H151.608C151.502 113.786 151.425 113.585 151.379 113.377C151.32 113.136 151.28 112.892 151.259 112.645C151.236 112.393 151.214 112.145 151.197 111.907C151.18 111.669 151.163 111.45 151.151 111.278C151.117 110.667 151.06 110.044 150.997 109.443C150.93 108.88 150.771 108.332 150.528 107.82C150.305 107.345 149.952 106.942 149.51 106.66C148.954 106.347 148.315 106.213 147.681 106.276H141.41V113.97H139.764V96.6459H147.7ZM147.58 104.865C148.067 104.865 148.552 104.788 149.015 104.636C149.885 104.351 150.606 103.732 151.021 102.916C151.228 102.471 151.33 101.984 151.321 101.493C151.347 101.032 151.279 100.571 151.121 100.137C150.962 99.7037 150.717 99.3071 150.4 98.9719C150.015 98.639 149.567 98.3861 149.083 98.2282C148.599 98.0702 148.089 98.0103 147.582 98.0519H141.414V104.865H147.58Z" fill="white"></path><path d="M162.589 96.6465H160.937V113.976H162.589V96.6465Z" fill="white"></path><path d="M177.977 96.6309L184.777 113.967H183L180.891 108.582H173.003L170.911 113.967H169.167L176.135 96.6309H177.977ZM180.327 107.177L176.983 98.2888L173.514 107.177H180.327Z" fill="white"></path><path d="M204.457 96.6377V112.562H214.168V113.969H202.807V96.6377H204.457Z" fill="white"></path><path d="M222.182 96.6377V107.367C222.163 108.233 222.277 109.096 222.519 109.928C222.717 110.571 223.059 111.161 223.519 111.654C223.963 112.105 224.513 112.439 225.119 112.626C226.522 113.038 228.015 113.038 229.419 112.626C230.023 112.437 230.573 112.104 231.019 111.654C231.478 111.163 231.819 110.572 232.012 109.928C232.255 109.096 232.368 108.233 232.35 107.367V96.6377H234.008V107.727C234.01 108.588 233.883 109.446 233.631 110.27C233.393 111.048 232.987 111.765 232.442 112.37C231.857 112.991 231.145 113.478 230.355 113.799C229.363 114.165 228.311 114.34 227.255 114.313C226.208 114.338 225.166 114.164 224.186 113.799C223.394 113.478 222.68 112.991 222.094 112.37C221.549 111.765 221.143 111.048 220.905 110.27C220.649 109.446 220.522 108.589 220.528 107.727V96.6377H222.182Z" fill="white"></path><path d="M243.954 96.6465H242.302V113.976H243.954V96.6465Z" fill="white"></path><path d="M266.049 113.974L265.826 110.824H265.78C265.506 111.408 265.142 111.944 264.7 112.413C264.285 112.846 263.807 113.212 263.282 113.499C262.761 113.789 262.201 113.999 261.619 114.122C261.016 114.254 260.401 114.319 259.785 114.316C258.551 114.343 257.328 114.09 256.206 113.578C255.218 113.112 254.344 112.435 253.646 111.595C252.956 110.75 252.436 109.779 252.114 108.737C251.443 106.504 251.443 104.123 252.114 101.889C252.436 100.84 252.956 99.8622 253.646 99.0083C254.344 98.1649 255.217 97.4841 256.206 97.0133C257.328 96.5016 258.551 96.2497 259.785 96.2763C260.655 96.2701 261.522 96.3934 262.357 96.6423C263.138 96.8708 263.87 97.2409 264.518 97.7343C265.161 98.2265 265.705 98.835 266.124 99.5283C266.58 100.296 266.883 101.145 267.016 102.028H265.37C265.31 101.496 265.139 100.982 264.87 100.519C264.571 99.9893 264.184 99.5138 263.727 99.1133C262.629 98.1742 261.227 97.6663 259.783 97.6843C258.755 97.6528 257.735 97.8786 256.817 98.3413C256.021 98.7597 255.329 99.3513 254.793 100.072C254.261 100.809 253.867 101.636 253.633 102.513C253.129 104.339 253.129 106.267 253.633 108.092C253.864 108.973 254.257 109.802 254.793 110.538C255.327 111.263 256.019 111.857 256.817 112.275C257.737 112.733 258.755 112.958 259.783 112.932C260.661 112.946 261.533 112.785 262.349 112.458C263.07 112.161 263.719 111.711 264.249 111.138C264.773 110.552 265.17 109.863 265.415 109.114C265.682 108.294 265.804 107.433 265.775 106.57H259.875V105.164H267.24V113.974H266.049Z" fill="white"></path><path d="M277.048 96.6465H275.396V113.976H277.048V96.6465Z" fill="white"></path><path d="M292.432 96.6309L299.232 113.967H297.46L295.351 108.582H287.463L285.371 113.967H283.622L290.59 96.6309H292.432ZM294.793 107.177L291.444 98.2888L287.975 107.177H294.793Z" fill="white"></path><path d="M128.65 20L120.611 0L97.4404 0.011H97.4804C99.9593 -0.0051245 102.41 0.540892 104.647 1.608C106.884 2.67511 108.851 4.23555 110.398 6.172C111.651 7.66389 112.685 9.327 113.467 11.111L118.206 22.954L118.406 23.445L126.877 44.605L129.054 50.04L132.243 58.008L135.456 50.04L137.633 44.605L138.062 43.542L132.975 30.83L128.65 20Z" fill="white"></path><path d="M109.015 58.0117C109.013 61.087 107.79 64.0357 105.615 66.2096C103.44 68.3835 100.49 69.6047 97.415 69.6047H120.621C117.546 69.6047 114.596 68.3835 112.421 66.2096C110.246 64.0357 109.023 61.087 109.021 58.0117" fill="white"></path><path d="M190.226 58.0117C190.224 61.087 189.001 64.0357 186.826 66.2096C184.651 68.3835 181.701 69.6047 178.626 69.6047H201.832C198.757 69.6047 195.807 68.3835 193.632 66.2096C191.457 64.0357 190.234 61.087 190.232 58.0117" fill="white"></path><path d="M167.021 58.011V11.599C167.02 10.0751 167.32 8.56601 167.902 7.15796C168.485 5.74992 169.34 4.47059 170.417 3.39318C171.495 2.31577 172.775 1.46143 174.183 0.879022C175.591 0.296617 177.1 -0.00241676 178.624 -0.000970342H143.824C145.348 -0.00254911 146.857 0.296416 148.265 0.878812C149.673 1.46121 150.953 2.3156 152.03 3.39307C153.108 4.47054 153.962 5.74994 154.544 7.15803C155.127 8.56612 155.426 10.0753 155.424 11.599V58.011C155.425 59.5341 155.125 61.0424 154.542 62.4496C153.959 63.8567 153.104 65.1352 152.027 66.2119C150.95 67.2886 149.671 68.1423 148.263 68.7244C146.856 69.3064 145.347 69.6053 143.824 69.604H178.624C175.549 69.604 172.599 68.3829 170.424 66.2089C168.249 64.035 167.026 61.0863 167.024 58.011" fill="white"></path></g></g><defs><clipPath id="clip0_641_170"><rect width="299.234" height="114.314" fill="white"></rect></clipPath></defs></svg> 