<?xml version="1.0" encoding="UTF-8"?> <svg xmlns="http://www.w3.org/2000/svg" width="390" height="59" viewBox="0 0 390 59" fill="none"><g clip-path="url(#clip0_641_220)"><path d="M305.452 23.0122H307.944L308.344 19.8772L307.431 17.0342L305.452 23.0122Z" fill="white"></path><mask id="mask0_641_220" style="mask-type:luminance" maskUnits="userSpaceOnUse" x="0" y="0" width="390" height="59"><path d="M389.139 0H0V58.925H389.139V0Z" fill="white"></path></mask><g mask="url(#mask0_641_220)"><path d="M387.006 32.876C385.523 30.2195 383.311 28.0431 380.63 26.604C383.384 25.0327 385.177 23.1717 386.011 21.021C386.791 19.1115 387.212 17.0743 387.253 15.012C387.274 13.0089 386.865 11.0247 386.055 9.19293C385.244 7.36116 384.05 5.72443 382.553 4.393C379.417 1.46433 374.992 0 369.277 0C363.563 0 359.14 1.46433 356.009 4.393C354.513 5.72443 353.319 7.36116 352.508 9.19293C351.697 11.0247 351.288 13.0089 351.309 15.012C351.346 17.0748 351.767 19.1126 352.551 21.021C353.381 23.176 355.185 25.16 357.951 26.993C355.252 28.2202 353.019 30.2827 351.582 32.876C350.118 35.543 349.371 38.5439 349.412 41.586C349.369 43.8568 349.783 46.1132 350.63 48.2205C351.477 50.3279 352.74 52.2431 354.343 53.852C357.629 57.2347 362.468 58.9257 368.861 58.925C375.255 58.9243 380.231 57.2333 383.791 53.852C385.501 52.3036 386.862 50.409 387.783 48.2942C388.704 46.1793 389.165 43.8926 389.134 41.586C389.181 38.548 388.447 35.5489 387.002 32.876M363.991 10.986C365.483 9.74325 367.363 9.06268 369.304 9.06268C371.246 9.06268 373.126 9.74325 374.617 10.986C375.266 11.6986 375.767 12.5337 376.088 13.4423C376.41 14.3509 376.547 15.3147 376.491 16.277C376.528 17.2058 376.381 18.1327 376.059 19.0046C375.736 19.8765 375.245 20.6762 374.613 21.358C373.136 22.6322 371.251 23.3333 369.3 23.3333C367.35 23.3333 365.464 22.6322 363.987 21.358C363.343 20.6829 362.841 19.8854 362.51 19.0126C362.18 18.1398 362.028 17.2095 362.064 16.277C362.009 15.3107 362.151 14.3434 362.482 13.4337C362.812 12.5241 363.325 11.6913 363.987 10.986M375.369 47.371C373.712 48.8735 371.556 49.7058 369.319 49.7058C367.083 49.7058 364.926 48.8735 363.269 47.371C361.718 45.5608 360.934 43.2171 361.084 40.838C361.084 37.912 361.825 35.697 363.306 34.193C364.969 32.736 367.105 31.9327 369.316 31.9327C371.527 31.9327 373.662 32.736 375.325 34.193C376.815 35.697 377.558 37.912 377.555 40.838C377.705 43.2171 376.921 45.5608 375.37 47.371" fill="white"></path><path d="M309.344 23.012L308.333 19.877L307.933 23.012H309.344Z" fill="white"></path><path d="M311.11 28.5137H307.24L306.724 32.5927L312.509 32.8697L312.478 32.7697L311.11 28.5137Z" fill="white"></path><path d="M326.785 19.9072C324.769 19.8554 322.76 20.1621 320.851 20.8132C319.427 21.4291 318.066 22.1809 316.787 23.0582L318.838 10.5682H342.172V1.03418H310.733L309.775 8.55518H310.762L310.934 9.05518L318.634 30.8022C319.266 30.2728 319.982 29.8527 320.752 29.5592C321.899 29.196 323.097 29.0241 324.3 29.0502C327.181 29.0502 329.303 30.0555 330.668 32.0662C332.083 34.2637 332.795 36.8399 332.711 39.4522C332.813 42.0862 332.048 44.6809 330.533 46.8382C329.798 47.814 328.834 48.593 327.725 49.1061C326.616 49.6192 325.398 49.8504 324.179 49.7792C323.175 49.8471 322.168 49.706 321.221 49.3647C320.274 49.0233 319.409 48.4892 318.679 47.7962C317.295 46.1953 316.406 44.2274 316.119 42.1312H304.922C305.322 47.4965 307.265 51.6372 310.752 54.5532C314.239 57.4692 318.701 58.9262 324.14 58.9242C330.883 58.9242 335.949 56.8488 339.34 52.6982C342.659 48.7335 344.458 43.7165 344.414 38.5462C344.414 32.4795 342.658 27.8572 339.146 24.6792C335.793 21.5566 331.365 19.8467 326.783 19.9052" fill="white"></path><path d="M318.453 32.5408L318.053 31.4258C317.727 31.7681 317.437 32.1416 317.185 32.5408H318.453Z" fill="white"></path><path d="M304.419 23.7569L307.435 14.6199L308.557 18.1199L309.68 9.29688H304.733L296.449 32.5409H301.522L303.101 27.7589H307.337L307.845 23.7589L304.419 23.7569Z" fill="white"></path><path d="M313.187 32.5425H317.187C317.439 32.1432 317.73 31.7698 318.055 31.4275L310.228 9.31348H309.674L308.552 18.1215L310.37 23.7635H307.841L307.324 27.7635H311.65L313.187 32.5425Z" fill="white"></path><path d="M275.744 9.31273V13.4237H282.726V32.5437H287.62V13.4237H294.573V9.31273H275.744ZM252.965 9.31273V13.4237H259.939V32.5437H264.826V13.4237H271.779V9.31273H252.965ZM247.472 9.31273H230.439V32.5417H248.047V28.3587H235.183V22.3937H246.469V18.3527H235.183V13.4237H247.472V9.31273ZM208.7 32.5417V22.1687H217.733V32.5417H222.559V9.31273H217.733V18.1657H208.7V9.31273H203.88V32.5417H208.7ZM176.521 21.1237C176.521 24.8731 177.466 27.8241 179.356 29.9767C180.339 31.0538 181.548 31.9007 182.897 32.457C184.245 33.0132 185.699 33.2651 187.156 33.1947C189.574 33.2849 191.933 32.4315 193.734 30.8147C195.469 29.1747 196.591 26.991 196.914 24.6257H192.094C191.887 25.5997 191.478 26.5195 190.894 27.3257C190.439 27.8855 189.857 28.3284 189.196 28.6173C188.535 28.9062 187.814 29.0329 187.094 28.9867C186.318 29.0002 185.55 28.832 184.851 28.4955C184.152 28.1589 183.541 27.6635 183.068 27.0487C182.02 25.7537 181.489 23.8007 181.489 21.1897C181.362 19.0709 181.885 16.9639 182.989 15.1507C183.439 14.5443 184.014 14.0414 184.675 13.6759C185.336 13.3104 186.068 13.0909 186.821 13.032C187.574 12.9732 188.331 13.0764 189.041 13.3348C189.751 13.5931 190.397 14.0006 190.936 14.5297C191.505 15.2736 191.908 16.1309 192.118 17.0437H196.975C196.861 15.4809 196.308 13.982 195.381 12.7187C193.6 10.1521 190.773 8.8674 186.902 8.86473C185.578 8.82163 184.259 9.05493 183.03 9.54976C181.801 10.0446 180.688 10.7901 179.763 11.7387C177.601 13.9287 176.52 17.0571 176.521 21.1237ZM151.795 25.3667C151.746 26.4575 151.96 27.544 152.417 28.5356C152.874 29.5272 153.561 30.3951 154.422 31.0667C156.523 32.5607 159.069 33.2946 161.643 33.1477C164.138 33.3016 166.606 32.5527 168.595 31.0377C169.378 30.4006 170.006 29.5939 170.431 28.6785C170.856 27.7631 171.068 26.763 171.05 25.7537C171.106 24.8548 170.948 23.9555 170.589 23.1295C170.23 22.3035 169.68 21.5744 168.985 21.0017C167.775 20.1587 166.4 19.5819 164.951 19.3097L160.879 18.3517C159.818 18.1536 158.784 17.832 157.797 17.3937C157.448 17.2291 157.154 16.9654 156.953 16.6354C156.752 16.3055 156.653 15.9238 156.667 15.5377C156.653 15.1148 156.751 14.6957 156.952 14.3234C157.153 13.9512 157.45 13.6392 157.812 13.4197C158.737 12.8691 159.805 12.6059 160.88 12.6637C161.875 12.631 162.864 12.8306 163.769 13.2467C164.33 13.5173 164.803 13.9399 165.135 14.4664C165.468 14.9929 165.645 15.6022 165.648 16.2247H170.317C170.335 15.1325 170.096 14.0514 169.619 13.0687C169.142 12.0861 168.44 11.2293 167.571 10.5677C165.72 9.24913 163.489 8.56888 161.217 8.62973C158.254 8.62973 156.004 9.31806 154.467 10.6947C153.726 11.3339 153.136 12.1289 152.738 13.0228C152.341 13.9168 152.146 14.8876 152.167 15.8657C152.093 16.8363 152.27 17.8096 152.681 18.6918C153.093 19.5739 153.725 20.3351 154.516 20.9017C156.101 21.7847 157.826 22.3898 159.616 22.6907L162.131 23.2367C163.257 23.4347 164.346 23.8005 165.363 24.3217C165.677 24.5007 165.937 24.7616 166.115 25.0766C166.293 25.3917 166.382 25.7491 166.373 26.1107C166.385 26.7285 166.186 27.3319 165.809 27.8216C165.433 28.3113 164.9 28.658 164.3 28.8047C163.376 29.082 162.414 29.2106 161.449 29.1857C159.495 29.1857 158.119 28.7067 157.31 27.7417C156.803 27.0444 156.497 26.221 156.427 25.3617L151.795 25.3667ZM145.51 9.31473H128.47V32.5417H146.078V28.3587H133.214V22.3937H144.5V18.3527H133.214V13.4237H145.514L145.51 9.31473ZM100.93 21.1237C100.93 24.8731 101.878 27.8241 103.773 29.9767C104.755 31.0533 105.962 31.8999 107.308 32.4561C108.655 33.0124 110.108 33.2646 111.563 33.1947C113.983 33.2837 116.344 32.4306 118.148 30.8147C119.88 29.1728 121.002 26.99 121.328 24.6257H116.5C116.293 25.5995 115.884 26.5192 115.3 27.3257C114.843 27.8871 114.258 28.3309 113.594 28.6198C112.93 28.9088 112.206 29.0346 111.484 28.9867C110.711 28.999 109.945 28.8302 109.249 28.4937C108.552 28.1572 107.944 27.6623 107.473 27.0487C106.418 25.7541 105.892 23.8011 105.894 21.1897C105.763 19.0706 106.287 16.9623 107.394 15.1507C107.843 14.5443 108.418 14.0414 109.078 13.6759C109.738 13.3104 110.47 13.0908 111.222 13.0319C111.975 12.973 112.731 13.0763 113.44 13.3347C114.149 13.5931 114.795 14.0006 115.333 14.5297C115.908 15.2711 116.314 16.1291 116.523 17.0437H121.372C121.268 15.48 120.717 13.979 119.785 12.7187C117.997 10.1521 115.168 8.8674 111.299 8.86473C109.974 8.82376 108.654 9.058 107.424 9.55267C106.194 10.0473 105.08 10.7917 104.152 11.7387C102.006 13.9287 100.932 17.0571 100.93 21.1237ZM75.479 32.5417H80.006V16.0557L89.465 32.5417H94.322V9.31273H89.794V25.5067L80.567 9.31273H75.479V32.5417ZM47.528 32.5417H52.6L54.179 27.7597H62.732L64.266 32.5417H69.534L61.312 9.31273H55.819L47.528 32.5417ZM58.513 14.6237L61.447 23.7677H55.5L58.513 14.6237ZM34.013 9.31773H22.907V32.5417H27.644V23.4337H32.389C33.3713 23.3218 34.3597 23.5835 35.158 24.1667C35.761 25.0308 36.0345 26.0823 35.929 27.1307L35.951 29.2927C35.9602 29.966 36.0305 30.6371 36.161 31.2977C36.22 31.6117 36.325 32.0317 36.475 32.5407H41.84V31.9647C41.603 31.8198 41.3997 31.6261 41.2434 31.3964C41.0872 31.1667 40.9817 30.9064 40.934 30.6327C40.8266 29.9197 40.7838 29.1985 40.806 28.4777V26.9137C40.8812 25.6654 40.6527 24.4174 40.14 23.2767C39.617 22.4221 38.8125 21.7765 37.865 21.4507C39.0456 21.0865 40.0353 20.2721 40.62 19.1837C41.1608 18.1805 41.4485 17.0604 41.458 15.9207C41.4726 15.087 41.3252 14.2583 41.024 13.4807C40.7407 12.7709 40.3468 12.1104 39.857 11.5237C39.2738 10.8154 38.526 10.2606 37.679 9.90773C36.5062 9.47538 35.2614 9.27171 34.012 9.30773M33 13.3387C33.7717 13.2891 34.5435 13.4335 35.245 13.7587C35.7135 14.0546 36.0882 14.4775 36.3255 14.9782C36.5628 15.4789 36.6528 16.0368 36.585 16.5867C36.647 17.1114 36.5487 17.6426 36.3029 18.1103C36.057 18.578 35.6753 18.9603 35.208 19.2067C34.4663 19.5008 33.6697 19.6308 32.873 19.5877H27.644V13.3387H33ZM0 32.5417H4.827V22.7977H15.117V18.7717H4.827V13.4237H16.569V9.32373H0V32.5417Z" fill="white"></path></g></g><defs><clipPath id="clip0_641_220"><rect width="389.139" height="58.925" fill="white"></rect></clipPath></defs></svg> 