<?xml version="1.0" encoding="UTF-8"?> <svg xmlns="http://www.w3.org/2000/svg" width="406" height="60" viewBox="0 0 406 60" fill="none"><g clip-path="url(#clip0_641_194)"><mask id="mask0_641_194" style="mask-type:luminance" maskUnits="userSpaceOnUse" x="0" y="0" width="406" height="60"><path d="M405.687 0H0V59.44H405.687V0Z" fill="white"></path></mask><g mask="url(#mask0_641_194)"><path d="M405.59 40.7686C405.135 39.6456 404.112 40.3326 403.372 40.5836C398.501 42.0701 393.461 42.9336 388.372 43.1536C387.778 43.2328 387.174 43.1919 386.595 43.0334C386.017 42.8749 385.477 42.6019 385.006 42.2306C384.107 41.5394 383.069 41.05 381.964 40.7957C380.858 40.5414 379.711 40.528 378.6 40.7566C376.509 41.1563 374.541 42.0406 372.854 43.3386C370.242 45.1538 367.458 46.7086 364.543 47.9806C361.503 49.336 358.236 50.1123 354.911 50.2696C353.496 50.3569 352.078 50.1391 350.755 49.631C349.431 49.1229 348.232 48.3364 347.238 47.3246C346.438 46.5246 345.575 45.7926 344.708 45.0716C343.637 44.1331 342.323 43.5137 340.918 43.2839C339.512 43.0541 338.07 43.2231 336.755 43.7716C335.693 44.1556 334.655 44.6166 333.606 45.0236C333.034 45.2446 332.371 45.8506 331.867 45.4146C331.316 44.9386 331.967 44.2806 332.144 43.7146C332.299 43.3924 332.332 43.0253 332.239 42.6803C332.146 42.3353 331.932 42.0352 331.636 41.8346C330.96 41.3636 330.452 41.8206 329.912 42.1596C328.387 43.1824 326.736 44.0026 324.999 44.5996C320.023 46.2025 314.969 47.5506 309.856 48.6386C307.103 49.3082 304.26 49.5278 301.437 49.2886C298.394 48.9186 297.487 47.4756 298.52 44.6296C298.904 43.5716 299.441 42.5696 299.873 41.5296C300.06 41.0776 300.228 40.5716 299.673 40.2126C299.141 39.9847 298.554 39.9158 297.983 40.0141C297.413 40.1124 296.883 40.3737 296.457 40.7666C294.655 43.1524 292.177 44.9417 289.346 45.9026C284.428 47.6951 279.296 48.8371 274.082 49.2996C271.973 49.5326 269.843 49.5087 267.739 49.2286C265.967 49.0867 264.275 48.4286 262.872 47.3356C261.041 45.7176 261.038 44.4886 262.827 42.8616C263.036 42.6716 263.263 42.5006 263.465 42.3046C265.608 40.337 267.292 37.9224 268.398 35.2318C269.504 32.5412 270.005 29.6403 269.865 26.7346C269.846 25.6022 269.617 24.4831 269.189 23.4346C269.058 22.9532 268.792 22.5191 268.424 22.1827C268.055 21.8463 267.598 21.6216 267.107 21.5346C265.907 21.4046 265.372 22.3346 264.889 23.2026C263.88 25.1446 263.024 27.1628 262.33 29.2386C261.044 32.7496 259.843 36.2906 258.468 39.7706C257.925 41.2294 257.047 42.5399 255.903 43.5959C254.76 44.6518 253.383 45.4236 251.886 45.8486C245.577 47.9717 238.948 48.9847 232.293 48.8426C230.949 48.8083 229.617 48.5838 228.336 48.1756C227.106 47.8142 226.013 47.0908 225.199 46.0996C224.073 44.6996 224.27 43.6996 225.671 42.5556C228.332 40.5381 230.412 37.8515 231.698 34.7694C232.984 31.6872 233.43 28.3194 232.992 25.0086C232.912 24.0903 232.645 23.1981 232.208 22.3866C231.334 20.8246 230.032 20.6646 228.77 21.9576C228.216 22.6004 227.772 23.3306 227.457 24.1186C225.311 28.8792 223.409 33.7458 221.758 38.6996C221.315 40.0024 220.61 41.2009 219.687 42.2216C218.764 43.2424 217.642 44.0638 216.39 44.6356C213.048 46.3297 209.542 47.6777 205.926 48.6586C202.203 49.6176 198.426 50.1726 194.609 49.2176C190.636 48.2246 189.321 46.7596 189.054 43.0856C188.985 41.6515 188.362 40.3003 187.315 39.3171C186.269 38.3339 184.882 37.7956 183.446 37.8156C181.236 37.7308 179.061 38.3776 177.256 39.6556C175.205 41.0363 173.013 42.1958 170.717 43.1146C164.885 45.4586 158.926 47.0846 152.553 46.3266C149.353 45.9456 146.496 45.0046 144.894 41.8086C144.285 40.5936 143.313 40.3926 142.007 40.7986C141.34 41.0376 140.75 41.4526 140.299 41.9996C138.143 44.333 135.976 46.6603 133.799 48.9816C133.533 49.2646 133.307 49.7926 132.814 49.6006C132.302 49.4006 132.569 48.8616 132.565 48.4866C132.539 45.8006 132.586 43.1146 132.535 40.4306C132.505 38.8796 131.935 38.5626 130.499 39.1856C130.047 39.3856 129.629 39.6556 129.187 39.8786C124.191 42.5229 118.961 44.6988 113.563 46.3786C109.453 47.7168 105.129 48.2707 100.814 48.0116C97.2141 47.6896 94.9531 45.7356 94.6361 42.0206C94.2461 37.4546 90.6521 35.2556 86.2971 36.6576C85.5493 36.873 84.8312 37.1804 84.1591 37.5726C79.3451 40.6106 74.0531 42.6066 68.7891 44.6526C56.5851 49.3996 44.1571 53.3846 31.0791 54.9406C25.5791 55.5956 20.0791 55.7596 14.6651 54.2646C8.28208 52.4996 4.88708 47.7996 5.33008 41.1996C5.62009 37.4477 6.83306 33.8256 8.86108 30.6556C11.6992 26.1663 15.2649 22.1808 19.4121 18.8626C27.1194 12.6278 35.9233 7.88715 45.3711 4.88462C48.5726 3.73786 51.9623 3.20786 55.3611 3.32262C56.8991 3.40962 58.7941 3.39962 59.2991 5.15462C59.8251 6.97162 58.1311 7.82062 56.8321 8.65462C54.8234 9.83724 52.73 10.8697 50.5691 11.7436C49.6538 12.1201 48.7995 12.6303 48.0341 13.2576C47.7241 13.5286 47.3621 13.8476 47.4961 14.3166C47.6301 14.7856 48.0961 14.8676 48.5251 14.9166C48.8742 14.9683 49.2279 14.9827 49.5801 14.9596C54.2079 14.5981 58.5506 12.5817 61.8131 9.27962C65.1611 5.83762 64.2991 2.48462 59.7691 0.841623C57.0662 -0.02547 54.1975 -0.245379 51.3941 0.199623C46.6274 0.83544 41.9593 2.06672 37.4991 3.86462C24.9478 8.468 13.9982 16.6075 5.97308 27.2996C3.29433 30.695 1.39913 34.6404 0.423079 38.8536C-1.56992 48.2896 3.58408 56.3656 12.9871 58.4536C13.9511 58.6676 14.9291 58.8306 15.9081 58.9646C23.9361 60.0646 31.8411 59.1236 39.6891 57.4476C51.1977 54.8281 62.4352 51.1349 73.2541 46.4166C74.5541 45.8706 75.8541 45.3166 77.1631 44.7796C77.2811 44.7037 77.4153 44.6564 77.5549 44.6416C77.6945 44.6268 77.8356 44.6448 77.967 44.6943C78.0984 44.7438 78.2164 44.8233 78.3115 44.9265C78.4067 45.0297 78.4764 45.1537 78.5151 45.2886C79.7041 47.6886 81.1951 48.4766 83.9471 48.1976C86.2138 47.9777 88.3741 47.1288 90.1841 45.7466C91.0001 45.1266 91.4121 45.1936 92.0091 46.0196C94.2271 49.0856 97.3921 50.4676 101.058 50.8846C102.464 51.0378 103.88 51.0599 105.29 50.9506C110.219 50.4615 115.053 49.2743 119.647 47.4246C122.366 46.4246 125.015 45.2506 127.652 44.0526C129.123 43.3856 129.152 43.4136 129.203 44.9526C129.26 46.7886 129.281 48.6256 129.318 50.4636C129.344 51.7356 129.395 53.0066 129.393 54.2786C129.346 54.7009 129.439 55.127 129.656 55.4918C129.874 55.8567 130.205 56.1404 130.599 56.2996C131.499 56.6776 132.07 56.1596 132.611 55.5596C132.8 55.3496 132.994 55.1436 133.182 54.9336C136.106 51.6706 139.04 48.4176 141.943 45.1336C142.488 44.5176 142.854 44.1826 143.555 45.0066C145.53 47.1716 148.226 48.5431 151.139 48.8646C155.347 49.4853 159.638 49.2338 163.744 48.1256C166.49 47.4536 169.188 46.6001 171.821 45.5706C172.301 45.3836 172.651 45.2076 172.844 46.0006C173.452 48.5106 174.393 49.2426 176.937 49.3546C179.649 49.492 182.319 48.6501 184.462 46.9826C185.317 46.3336 185.791 46.3276 186.462 47.2386C188.698 50.2766 191.878 51.6606 195.525 52.1106C198.484 52.4168 201.474 52.219 204.367 51.5256C209.609 50.3259 214.654 48.3893 219.352 45.7736C219.989 45.4306 220.604 44.7736 221.187 45.9736C222.559 48.8146 225.104 50.1236 228.004 50.8806C230.479 51.4911 233.034 51.7188 235.578 51.5556C242.8 51.2498 249.888 49.5011 256.424 46.4126C257.337 45.9776 257.843 45.8966 258.404 46.9176C259.058 48.0134 259.927 48.966 260.958 49.7182C261.989 50.4705 263.161 51.007 264.404 51.2956C266.234 51.8525 268.141 52.1171 270.054 52.0796C277.708 52.0283 285.273 50.4367 292.299 47.3996C293.675 46.7826 293.676 46.7716 294.141 48.1556C294.471 49.1754 295.189 50.024 296.141 50.5166C297.215 51.0612 298.383 51.3952 299.582 51.5006C302.331 51.7571 305.101 51.6434 307.819 51.1626C313.469 50.2417 319.038 48.8768 324.473 47.0806C325.503 46.7566 326.703 45.7216 327.559 46.4536C328.068 46.8886 326.989 48.1756 326.775 49.1246C326.561 50.0736 326.031 51.1176 327.016 51.8746C328.082 52.6936 328.856 51.7226 329.621 51.1746C331.674 49.5537 333.903 48.169 336.266 47.0466C339.333 45.7526 341.22 46.1216 343.54 48.4826C345.431 50.4146 347.868 51.7217 350.524 52.2286C353.03 52.7023 355.597 52.7483 358.118 52.3646C362.881 51.6374 367.439 49.9202 371.497 47.3236C371.62 47.1736 371.777 47.0666 371.95 47.1996C372.123 47.3326 372.05 47.5196 371.97 47.6866C371.91 48.0346 371.836 48.3796 371.79 48.7286C371.428 51.4586 372.779 53.0576 375.548 53.1696C376.469 53.2092 377.389 53.0811 378.264 52.7916C381.148 51.9381 383.586 49.9966 385.064 47.3776C385.316 46.8173 385.735 46.3481 386.263 46.0333C386.79 45.7185 387.402 45.5734 388.015 45.6176C391.615 45.4215 395.195 44.9535 398.725 44.2176C400.608 43.896 402.437 43.3123 404.158 42.4836C404.891 42.1136 406.007 41.8276 405.577 40.7676M224.814 39.2166C226.118 34.9811 227.669 30.8254 229.457 26.7706C229.515 26.6416 229.566 26.5106 229.618 26.3806C229.754 26.0416 229.972 25.6806 230.35 25.7896C230.699 25.8896 230.804 26.3046 230.819 26.6666C230.839 27.1586 230.824 27.6516 230.824 28.1446C230.633 32.2583 229.023 36.1787 226.267 39.2386C226.038 39.5023 225.77 39.7296 225.473 39.9126C225.272 39.9774 225.054 39.9612 224.865 39.8676C224.476 39.7036 224.736 39.4666 224.814 39.2166ZM89.4201 41.6226C88.1398 43.0229 86.5898 44.1502 84.8631 44.9366C84.2291 45.2016 83.4771 45.4756 82.9231 44.7916C82.3831 44.1266 82.7471 43.4066 83.1091 42.8356C83.6304 41.9195 84.3509 41.1321 85.2174 40.5319C86.0838 39.9316 87.0742 39.5337 88.1151 39.3676C89.0011 39.3786 89.6661 39.4566 89.9571 40.1276C90.2161 40.7276 89.8071 41.2276 89.4201 41.6226ZM184.126 42.4276C182.787 43.9682 181.143 45.2153 179.299 46.0906C178.659 46.3746 177.919 46.5906 177.341 45.9696C176.729 45.3096 177.159 44.6076 177.497 44.0296C178.024 43.0323 178.807 42.1926 179.764 41.5962C180.722 40.9998 181.82 40.668 182.948 40.6346C183.67 40.6026 184.365 40.7756 184.522 41.7436C184.416 41.9864 184.281 42.2159 184.122 42.4276M261.555 40.2526C262.805 35.9933 264.325 31.8181 266.107 27.7526C266.281 27.2943 266.501 26.8545 266.762 26.4396C267.028 26.0666 267.362 26.1686 267.556 26.5706C267.758 27.1007 267.821 27.6732 267.741 28.2346C267.654 32.729 265.826 37.0141 262.641 40.1866C262.393 40.4316 262.151 40.6806 261.906 40.9286C261.828 41.1436 261.647 41.2816 261.486 41.1056C261.383 40.9831 261.333 40.8249 261.346 40.6655C261.36 40.5061 261.435 40.3584 261.557 40.2546M380.899 47.2916C379.898 48.7363 378.397 49.7594 376.686 50.1636C375.386 50.1746 374.848 49.6216 375.115 48.5526C375.303 47.6581 375.683 46.8151 376.228 46.0818C376.774 45.3486 377.472 44.7425 378.275 44.3056C378.735 44.039 379.273 43.94 379.798 44.0253C380.322 44.1106 380.801 44.375 381.153 44.7736C381.407 45.1584 381.521 45.6192 381.475 46.0781C381.428 46.537 381.224 46.9657 380.898 47.2916" fill="white"></path><path d="M299.874 37.4207C300.465 37.3957 301.025 37.1504 301.445 36.7331C301.864 36.3158 302.113 35.7567 302.141 35.1657C302.127 34.3087 301.464 33.7717 300.415 33.7657C299.814 33.7609 299.234 33.984 298.792 34.3901C298.35 34.7962 298.078 35.355 298.032 35.9537C297.955 36.8977 298.577 37.3927 299.874 37.4217" fill="white"></path></g></g><defs><clipPath id="clip0_641_194"><rect width="405.687" height="59.44" fill="white"></rect></clipPath></defs></svg> 