<?xml version="1.0" encoding="UTF-8"?> <svg xmlns="http://www.w3.org/2000/svg" width="193" height="193" viewBox="0 0 193 193" fill="none"><circle cx="96.5" cy="96.5" r="96.5" fill="#202123"></circle><g clip-path="url(#clip0_607_22)"><path d="M160.845 55.3635L162.604 58.2791L165.754 54.4084L165.738 54.3916L160.845 55.3635Z" fill="#F7F6F5"></path><path d="M26.3574 56.0335L29.5746 59.854L31.267 56.8881L26.3742 56L26.3574 56.0335Z" fill="#F7F6F5"></path><path d="M130.13 164.95L133.766 168.351H133.8L133.163 163.392L130.13 164.95Z" fill="#F7F6F5"></path><path d="M18.9519 79.5425C17.98 79.3582 17.159 79.7603 16.9411 81.0003L16.3379 84.2678L19.7897 84.9046L20.2924 82.1565C20.527 80.9165 20.3929 79.8106 18.9519 79.5425Z" fill="#F7F6F5"></path><path d="M171.736 109.318L176.629 108.347L176.646 108.33L172.256 105.934L171.736 109.318Z" fill="#F7F6F5"></path><path d="M96.5 0C43.198 0 0 43.198 0 96.5C0 149.802 43.198 193 96.5 193C149.802 193 193 149.802 193 96.5C193 43.198 149.785 0 96.5 0ZM176.579 77.6156L169.642 84.4354V84.4689L177.651 82.8435L177.902 84.0835L168.033 86.0943L167.748 84.6532L174.618 77.9004V77.8669L166.692 79.4755L166.441 78.2355L176.311 76.2248L176.595 77.6156H176.579ZM15.8348 80.7155C16.1699 78.8555 17.3931 77.8837 18.985 78.1853C20.1747 78.4031 21.0628 79.1069 21.1801 80.3636H21.2136C21.6492 79.2577 22.5373 79.1739 23.526 79.2577C24.5146 79.3582 25.587 79.6096 26.3578 79.1739L26.0897 80.6485C25.6205 80.9501 24.5816 80.5479 23.5762 80.5647C22.5876 80.5312 21.7163 80.6149 21.4817 81.8884L20.8952 85.1057L25.1178 85.8765L24.8832 87.2002L14.9802 85.3905L15.8348 80.7322V80.7155ZM14.7289 105.599L15.8348 105.431L16.6558 110.642L19.8228 110.14L19.1023 105.565L20.2082 105.398L20.9287 109.972L25.4865 109.252L25.7043 110.575L15.751 112.15L14.7121 105.615L14.7289 105.599ZM28.5026 134.252C26.4248 134.252 24.7324 132.56 24.7324 130.482C24.7324 128.404 26.4248 126.712 28.5026 126.712C30.5804 126.712 32.2728 128.404 32.2728 130.482C32.2728 132.56 30.5804 134.252 28.5026 134.252ZM32.3901 63.2553L31.7031 64.445L24.9503 56.0166L25.6875 54.7431L36.3613 56.3517L35.6241 57.6252L32.4571 57.0722L30.329 60.7586L32.3901 63.2553ZM41.6899 149.467L40.0645 156.387L38.9586 155.231L40.3494 149.735L34.8365 150.908L33.7976 149.802L40.7683 148.495L43.7509 145.663L44.6725 146.635L41.6899 149.467ZM51.928 39.6624L42.6953 36.8808H42.6785L47.8897 43.0807L46.9179 43.9017L40.4331 36.2105L41.5223 35.2889L50.8389 38.1208H50.8556L45.5941 31.8539L46.566 31.0328L53.0507 38.724L51.928 39.6791V39.6624ZM59.5354 169.893L58.3625 169.256L62.6521 161.414L57.9771 158.867L58.5133 157.879L64.3613 161.079L59.5354 169.91V169.893ZM66.0369 25.4362C65.0483 22.6881 65.7856 19.8898 68.7012 18.8174C70.6784 18.0969 72.6892 18.5661 73.7113 20.4763L72.4546 20.9287C71.7006 19.6887 70.3768 19.4039 69.0698 19.8731C66.8077 20.6941 66.5396 22.8892 67.2434 24.8665C68.0309 27.028 69.6395 28.4858 71.9016 27.6648C73.5605 27.0616 74.0967 25.5535 73.6443 23.9449L74.901 23.4924C75.521 25.9389 74.5659 27.8994 72.1865 28.7707C69.2374 29.8431 67.0255 28.1842 66.0201 25.4194M80.2966 177.014L78.9896 176.746L81.0506 166.894L82.3576 167.162L80.2966 177.014ZM94.6233 80.0787H73.5102V94.2211H92.2606V97.4048H73.5102V116.055H69.7903V76.9118H94.6233V80.0955V80.0787ZM92.9644 24.2968L92.9309 14.2262L99.8848 14.1927V15.3153L94.2882 15.3321V18.5326L99.5329 18.5158V19.6385L94.3049 19.6552V23.1406L99.9686 23.1238V24.2465L92.9812 24.28L92.9644 24.2968ZM109.285 177.701L105.13 169.675L102.968 178.455L101.142 178.673L99.9518 168.67L101.209 168.519L102.197 176.83H102.231L104.359 168.134L105.498 167.999L109.603 175.942H109.637L108.648 167.614L109.905 167.463L111.095 177.467L109.268 177.685L109.285 177.701ZM123.159 80.0787H102.046V94.2211H120.797V97.4048H102.046V116.055H98.3264V76.9118H123.159V80.0955V80.0787ZM124.718 26.9443C124.014 28.9718 121.752 29.0891 120.026 28.5026C117.898 27.7653 116.457 26.1064 117.261 23.7773L118.468 24.1962C117.915 25.7881 119.004 26.9443 120.445 27.447C121.584 27.8491 122.975 27.9161 123.461 26.5421C123.913 25.2351 122.472 24.4811 121.065 23.6265C119.657 22.7719 118.283 21.8001 118.887 20.0574C119.557 18.1304 121.568 17.8623 123.293 18.4655C125.237 19.1358 126.393 20.5601 125.757 22.6881L124.55 22.2692C124.869 20.8617 124.165 19.9569 122.858 19.5044C121.785 19.1358 120.596 19.1525 120.16 20.3925C119.758 21.5655 121.216 22.2692 122.623 23.1406C124.031 24.0119 125.354 25.0675 124.718 26.9275M133.632 169.742L125.522 162.604L126.829 161.934L129.192 164.129L132.979 162.168L132.593 158.951L133.816 158.314L134.939 169.072L133.615 169.759L133.632 169.742ZM147.707 33.2614C145.848 31.7533 143.82 32.6582 142.496 34.3003C141.055 36.0932 140.653 38.2213 142.53 39.7294C143.904 40.8353 145.462 40.5002 146.618 39.2937L147.657 40.1315C145.881 41.9245 143.719 42.1255 141.742 40.5337C139.313 38.5732 139.564 35.8251 141.407 33.5295C143.234 31.2507 146.032 30.4463 148.445 32.3901C150.087 33.7138 150.724 35.6743 149.618 37.5343L148.579 36.6965C149.249 35.4062 148.813 34.1327 147.724 33.2614M152.952 156.304L152.148 155.516L155.818 151.729L153.522 149.5L150.305 152.818L149.5 152.031L152.718 148.713L149.4 145.496L150.338 144.541L157.577 151.545L152.969 156.287L152.952 156.304ZM159.822 61.697L161.85 59.1835L159.638 55.5474L156.454 56.1506L155.734 54.9609L166.374 53.1177L167.145 54.3912L160.576 62.9705L159.806 61.697H159.822ZM164.581 134.085C162.503 134.085 160.811 132.392 160.811 130.314C160.811 128.237 162.503 126.544 164.581 126.544C166.659 126.544 168.351 128.237 168.351 130.314C168.351 132.392 166.659 134.085 164.581 134.085ZM167.178 111.614L167.396 110.156L170.563 109.52L171.2 105.314L168.368 103.756L168.569 102.381L177.936 107.76L177.718 109.218L167.178 111.614Z" fill="#F7F6F5"></path></g><defs><clipPath id="clip0_607_22"><rect width="193" height="193" fill="white"></rect></clipPath></defs></svg> 