<?xml version="1.0" encoding="UTF-8"?> <svg xmlns="http://www.w3.org/2000/svg" width="281" height="186" viewBox="0 0 281 186" fill="none"><g clip-path="url(#clip0_642_338)"><path d="M16.446 184.716C16.446 184.855 16.323 184.925 16.078 184.925C15.9306 184.926 15.7834 184.917 15.637 184.9L12.524 184.802L9.411 184.9C9.2894 184.917 9.16677 184.925 9.044 184.925C8.717 184.925 8.55367 184.839 8.554 184.668C8.554 184.48 8.774 184.385 9.215 184.385C10.653 184.369 11.372 184.225 11.372 183.953C11.3596 183.888 11.3429 183.824 11.322 183.761L11.122 183.113L10.996 182.771C10.8493 182.264 10.4903 181.144 9.919 179.41H4.679C4.05525 180.866 3.5636 182.376 3.21 183.92C3.19786 184.014 3.22136 184.108 3.27582 184.185C3.33028 184.262 3.41173 184.316 3.504 184.336C3.553 184.353 3.962 184.385 4.73 184.435C5.204 184.451 5.441 184.533 5.441 184.68C5.441 184.843 5.228 184.925 4.804 184.925C4.052 184.925 3.17767 184.892 2.181 184.826C1.936 184.81 1.682 184.802 1.421 184.802C1.16542 184.801 0.910533 184.829 0.661 184.884C0.556593 184.908 0.450084 184.922 0.343 184.925C0.114 184.925 0 184.851 0 184.703C0 184.555 0.257 184.474 0.772 184.458C1.15706 184.471 1.53952 184.39 1.887 184.224C2.15464 184.029 2.34538 183.746 2.426 183.425C4.528 177.391 6.239 172.546 7.559 168.89C7.60838 168.665 7.68494 168.447 7.787 168.24L7.892 167.792C7.941 167.612 8.006 167.523 8.088 167.523C8.137 167.523 8.178 167.572 8.21 167.67C8.423 168.307 8.905 169.639 9.656 171.665C10.244 173.25 11.7063 177.229 14.043 183.601C14.1144 183.892 14.2944 184.145 14.546 184.307C14.953 184.441 15.3808 184.501 15.809 184.483C16.233 184.499 16.446 184.576 16.446 184.716ZM9.806 178.846C9.54 178.111 9.09933 176.893 8.484 175.193L7.306 171.796C6.617 173.604 5.78867 175.954 4.821 178.846H9.806Z" fill="white"></path><path d="M35.7842 182.939C35.7842 183.364 35.7595 184.067 35.7102 185.047H35.4412C35.3442 185.047 35.1072 185.03 34.7322 184.998C34.3572 184.966 33.9332 184.949 33.4602 184.949L23.2832 184.875C23.0062 184.875 22.8675 184.802 22.8672 184.655C22.8672 184.541 23.0879 184.468 23.5292 184.434C23.9122 184.455 24.2946 184.384 24.6442 184.226C24.7672 184.12 24.8285 183.814 24.8282 183.307V169.532C24.8282 168.927 24.7669 168.576 24.6442 168.478C24.2229 168.335 23.7757 168.285 23.3332 168.331C23.0222 168.331 22.8669 168.242 22.8672 168.062C22.8672 167.914 22.9652 167.841 23.1612 167.841H23.3822C23.9212 167.89 24.9915 167.915 26.5932 167.914C26.7402 167.914 27.0252 167.902 27.4502 167.877C27.8752 167.852 28.2262 167.841 28.5042 167.841H28.7742C29.0682 167.841 29.2152 167.923 29.2152 168.086C29.2192 168.128 29.2076 168.17 29.1827 168.204C29.1578 168.238 29.1213 168.261 29.0802 168.27C28.8003 168.311 28.518 168.331 28.2352 168.331C27.7612 168.347 27.4792 168.425 27.3892 168.564C27.2611 168.98 27.2152 169.418 27.2542 169.851V184.312C27.6962 184.328 28.3092 184.336 29.0932 184.336C30.4478 184.383 31.8036 184.284 33.1372 184.042C33.4673 183.986 33.781 183.858 34.0562 183.668C34.3315 183.477 34.5616 183.228 34.7302 182.939C35.0422 182.254 35.209 181.511 35.2202 180.758C35.2352 180.545 35.3302 180.439 35.5022 180.439C35.7062 180.439 35.8002 180.562 35.7842 180.806V182.939Z" fill="white"></path><path d="M71.1515 179.727C71.1515 179.859 71.0775 179.925 70.9315 179.925H70.3675C69.6155 179.892 69.1905 180.022 69.0925 180.315C68.9955 181.018 68.9627 181.728 68.9945 182.437V183.218C68.2835 183.858 67.4666 184.37 66.5805 184.73C65.6871 185.043 64.7447 185.192 63.7985 185.17C62.6689 185.227 61.5398 185.05 60.4814 184.652C59.423 184.253 58.458 183.641 57.6465 182.853C56.8647 182.011 56.2601 181.021 55.8686 179.941C55.4771 178.861 55.3067 177.713 55.3675 176.566C55.2586 174.196 56.0559 171.874 57.5975 170.071C58.3372 169.253 59.2473 168.608 60.2636 168.18C61.2799 167.753 62.3777 167.553 63.4795 167.596C64.6903 167.632 65.8784 167.934 66.9605 168.478C67.2479 168.634 67.5654 168.726 67.8915 168.748C68.2015 168.748 68.4058 168.552 68.5045 168.159C68.5855 167.931 68.6845 167.816 68.7985 167.816C68.8251 167.812 68.8522 167.815 68.8777 167.823C68.9032 167.832 68.9264 167.846 68.9454 167.865C68.9644 167.884 68.9788 167.907 68.9873 167.933C68.9958 167.958 68.9983 167.985 68.9945 168.012C68.9945 168.062 68.9805 168.233 68.9515 168.527C68.8665 169.458 68.8238 170.128 68.8235 170.537V172.13C68.8395 172.702 68.8475 172.956 68.8475 172.89C68.8145 173.282 68.7082 173.478 68.5285 173.478C68.3825 173.478 68.2995 173.363 68.2835 173.133C68.2837 171.759 67.7977 170.429 66.9115 169.379C66.4955 168.927 65.9864 168.571 65.4192 168.335C64.852 168.099 64.2404 167.988 63.6265 168.012C62.8118 168 62.0088 168.206 61.3001 168.608C60.5915 169.01 60.0027 169.594 59.5945 170.299C58.5138 172.187 57.9993 174.346 58.1125 176.518C58.003 178.627 58.5279 180.72 59.6195 182.528C60.0477 183.221 60.6493 183.791 61.365 184.182C62.0806 184.572 62.8856 184.769 63.7005 184.753C64.2084 184.813 64.7231 184.741 65.1952 184.544C65.6673 184.348 66.081 184.033 66.3965 183.631C66.6957 183 66.8226 182.301 66.7645 181.605C66.7645 180.793 66.6865 180.312 66.5315 180.166C66.0226 179.961 65.4686 179.893 64.9255 179.971C64.7775 179.979 64.6292 179.967 64.4845 179.935C64.4529 179.923 64.4261 179.901 64.4083 179.872C64.3906 179.843 64.3829 179.81 64.3865 179.776C64.3865 179.597 64.5661 179.508 64.9255 179.508H65.3675C65.6125 179.524 66.4785 179.524 67.9655 179.508H70.6615C70.9881 179.508 71.1515 179.581 71.1515 179.727Z" fill="white"></path><path d="M93.3327 184.716C93.3327 184.855 93.2097 184.925 92.9647 184.925C92.8174 184.926 92.6701 184.917 92.5237 184.9L89.4107 184.802L86.2977 184.9C86.1761 184.917 86.0535 184.925 85.9307 184.925C85.6041 184.925 85.4407 184.839 85.4407 184.668C85.4407 184.48 85.6607 184.385 86.1017 184.385C87.5397 184.369 88.2587 184.225 88.2587 183.953C88.2463 183.888 88.2296 183.824 88.2087 183.761L88.0087 183.113L87.8827 182.771C87.7357 182.264 87.3767 181.144 86.8057 179.41H81.5657C80.942 180.866 80.4503 182.376 80.0967 183.92C80.0846 184.014 80.1081 184.108 80.1625 184.185C80.217 184.262 80.2984 184.316 80.3907 184.336C80.4397 184.353 80.8487 184.385 81.6167 184.435C82.0907 184.451 82.3277 184.533 82.3277 184.68C82.3277 184.843 82.1147 184.925 81.6907 184.925C80.9387 184.925 80.0644 184.892 79.0677 184.826C78.8227 184.81 78.5687 184.802 78.3077 184.802C78.0521 184.801 77.7973 184.829 77.5477 184.884C77.4433 184.908 77.3368 184.922 77.2297 184.925C77.0007 184.925 76.8867 184.851 76.8867 184.703C76.8867 184.555 77.1437 184.474 77.6587 184.458C78.0438 184.471 78.4262 184.39 78.7737 184.224C79.0414 184.029 79.2321 183.746 79.3127 183.425C81.4147 177.391 83.1257 172.546 84.4457 168.89C84.4951 168.665 84.5717 168.447 84.6737 168.24L84.7787 167.792C84.8277 167.612 84.8927 167.523 84.9747 167.523C85.0237 167.523 85.0647 167.572 85.0967 167.67C85.3101 168.307 85.7921 169.639 86.5427 171.665C87.1307 173.25 88.5931 177.229 90.9297 183.601C91.0011 183.892 91.1811 184.145 91.4327 184.307C91.8397 184.441 92.2676 184.501 92.6957 184.483C93.1197 184.499 93.3327 184.576 93.3327 184.716ZM86.6927 178.846C86.4267 178.111 85.9861 176.893 85.3707 175.193L84.1927 171.796C83.5037 173.604 82.6754 175.954 81.7077 178.846H86.6927Z" fill="white"></path><path d="M113.088 172.228C113.088 172.441 112.99 172.546 112.794 172.546C112.598 172.546 112.459 172.335 112.377 171.909C112.344 171.615 112.312 171.321 112.279 171.027C112.187 170.498 111.996 169.99 111.715 169.532C111.522 169.251 111.271 169.013 110.98 168.836C110.688 168.658 110.363 168.544 110.024 168.502C109.622 168.414 109.21 168.373 108.799 168.38C108.03 168.402 107.564 168.419 107.402 168.429V183.231C107.402 183.82 107.557 184.189 107.867 184.336C108.314 184.455 108.777 184.505 109.24 184.483C109.436 184.498 109.534 184.568 109.534 184.691C109.534 184.83 109.403 184.9 109.142 184.9C109.027 184.901 108.912 184.893 108.799 184.875C107.818 184.842 107.123 184.826 106.715 184.826C106.176 184.826 105.669 184.839 105.196 184.863C104.722 184.888 104.117 184.9 103.382 184.9C103.006 184.9 102.818 184.835 102.818 184.703C102.818 184.556 103.169 184.474 103.872 184.457C104.379 184.457 104.706 184.352 104.853 184.139C104.963 183.816 105.005 183.473 104.975 183.132V168.429C103.964 168.385 102.951 168.467 101.96 168.674C100.931 169.05 100.326 170.055 100.147 171.689C100.098 172.179 99.9831 172.424 99.8028 172.424C99.6078 172.424 99.5088 172.252 99.5088 171.909C99.5088 171.73 99.5168 171.55 99.5338 171.37L99.5828 170.806C99.6318 170.055 99.7051 169.067 99.8028 167.841H100.906L105.906 167.914C106.495 167.931 107.41 167.931 108.652 167.914L112.72 167.841C112.753 168.756 112.859 170.112 113.039 171.909C113.04 171.971 113.048 172.033 113.063 172.093C113.074 172.138 113.082 172.183 113.088 172.228Z" fill="white"></path><path d="M134.313 172.228C134.313 172.441 134.215 172.546 134.019 172.546C133.823 172.546 133.684 172.335 133.602 171.909C133.569 171.615 133.537 171.321 133.504 171.027C133.413 170.498 133.221 169.99 132.94 169.532C132.748 169.251 132.497 169.013 132.206 168.836C131.914 168.658 131.588 168.544 131.249 168.502C130.847 168.414 130.436 168.373 130.024 168.38C129.255 168.402 128.79 168.419 128.627 168.429V183.231C128.627 183.82 128.782 184.189 129.092 184.336C129.54 184.455 130.003 184.505 130.465 184.483C130.661 184.498 130.759 184.568 130.759 184.691C130.759 184.83 130.628 184.9 130.367 184.9C130.253 184.901 130.138 184.893 130.024 184.875C129.043 184.842 128.349 184.826 127.94 184.826C127.401 184.826 126.895 184.839 126.421 184.863C125.948 184.888 125.343 184.9 124.607 184.9C124.231 184.9 124.043 184.835 124.043 184.703C124.043 184.556 124.395 184.474 125.097 184.457C125.604 184.457 125.93 184.352 126.078 184.139C126.189 183.816 126.23 183.473 126.2 183.132V168.429C125.189 168.385 124.176 168.467 123.185 168.674C122.156 169.05 121.552 170.055 121.372 171.689C121.323 172.179 121.209 172.424 121.028 172.424C120.833 172.424 120.734 172.252 120.734 171.909C120.734 171.73 120.742 171.55 120.759 171.37L120.808 170.806C120.857 170.055 120.931 169.067 121.028 167.841H122.131L127.131 167.914C127.72 167.931 128.636 167.931 129.877 167.914L133.945 167.841C133.978 168.756 134.085 170.112 134.264 171.909C134.266 171.971 134.274 172.033 134.288 172.093C134.3 172.138 134.308 172.183 134.313 172.228Z" fill="white"></path><path d="M158.161 176.468C158.224 178.728 157.442 180.93 155.968 182.645C155.318 183.442 154.497 184.083 153.565 184.52C152.634 184.957 151.617 185.179 150.588 185.169C149.51 185.186 148.442 184.965 147.459 184.522C146.477 184.08 145.603 183.426 144.901 182.608C143.355 180.876 142.531 178.617 142.597 176.296C142.505 174.002 143.3 171.76 144.816 170.035C145.527 169.239 146.403 168.609 147.383 168.188C148.363 167.767 149.424 167.565 150.49 167.596C151.534 167.583 152.567 167.805 153.514 168.246C154.46 168.687 155.294 169.336 155.955 170.145C157.448 171.906 158.234 174.16 158.161 176.468ZM155.416 176.591C155.562 174.12 154.918 171.667 153.578 169.585C153.216 169.077 152.732 168.667 152.172 168.392C151.611 168.117 150.991 167.987 150.367 168.012C149.803 167.979 149.239 168.07 148.714 168.278C148.189 168.486 147.716 168.806 147.328 169.216C146.004 170.691 145.342 173.092 145.343 176.419C145.222 178.557 145.702 180.686 146.728 182.566C147.118 183.246 147.685 183.809 148.369 184.194C149.053 184.579 149.828 184.772 150.612 184.752C151.332 184.776 152.044 184.595 152.665 184.229C153.285 183.864 153.789 183.329 154.117 182.687C155.065 180.8 155.513 178.701 155.416 176.591Z" fill="white"></path><path d="M193.505 167.988C193.505 168.12 193.349 168.194 193.039 168.21C192.536 168.172 192.033 168.283 191.593 168.529C191.233 168.921 190.973 169.393 190.833 169.906L190 172.193C187.99 177.715 186.576 181.951 185.76 184.901C185.711 185.096 185.629 185.194 185.515 185.194C185.383 185.194 185.113 184.581 184.706 183.355C183.971 181.117 183.399 179.435 182.99 178.307C182.553 177.064 181.905 175.207 181.046 172.737L179.853 169.434C179.756 169.086 179.57 168.77 179.313 168.516C179.02 168.332 178.678 168.242 178.333 168.257C177.794 168.241 177.472 168.225 177.365 168.21C177.341 168.208 177.318 168.201 177.297 168.19C177.276 168.179 177.258 168.163 177.243 168.145C177.228 168.127 177.217 168.105 177.211 168.083C177.204 168.06 177.203 168.036 177.206 168.012C177.206 167.866 177.369 167.792 177.696 167.792H177.916C178.211 167.792 178.721 167.805 179.448 167.829C180.174 167.854 180.693 167.866 181.005 167.865C181.087 167.865 181.401 167.853 181.948 167.829C182.496 167.804 183.276 167.792 184.289 167.792H184.632C184.926 167.792 185.074 167.866 185.074 168.014C185.074 168.178 184.779 168.267 184.191 168.282L182.696 168.333C182.353 168.35 182.181 168.461 182.181 168.666C182.188 168.736 182.204 168.805 182.229 168.87L182.418 169.535C182.451 169.666 183.25 171.968 184.816 176.44C185.077 177.211 185.575 178.678 186.311 180.841C189.001 173.204 190.346 169.19 190.346 168.798C190.346 168.422 189.945 168.25 189.143 168.282H188.382C188.186 168.282 188.088 168.21 188.088 168.064C188.088 167.883 188.333 167.793 188.823 167.792H189.657C190.114 167.841 190.449 167.866 190.662 167.865H191.446L193.064 167.792C193.358 167.792 193.505 167.857 193.505 167.988Z" fill="white"></path><path d="M213.627 180.929C213.627 180.995 213.611 181.395 213.578 182.13C213.546 182.865 213.529 183.567 213.529 184.238V185.047C211.927 184.949 208.757 184.9 204.019 184.9H200.955C200.645 184.9 200.49 184.834 200.49 184.702C200.49 184.615 200.539 184.563 200.637 184.549C200.686 184.549 200.997 184.527 201.568 184.483C201.993 184.45 202.251 184.36 202.34 184.213C202.463 183.841 202.509 183.448 202.475 183.057V169.241C202.475 168.766 202.405 168.483 202.267 168.393C201.835 168.263 201.381 168.217 200.931 168.257C200.669 168.257 200.539 168.188 200.539 168.049C200.539 167.91 200.718 167.841 201.078 167.841H211.47C211.921 167.844 212.372 167.811 212.818 167.743C212.851 168.445 212.925 169.417 213.039 170.659L213.137 171.714C213.155 171.819 213.163 171.926 213.161 172.032C213.161 172.196 213.088 172.277 212.941 172.277C212.761 172.277 212.631 172.072 212.549 171.661C212.503 171.113 212.343 170.58 212.082 170.096C211.82 169.612 211.462 169.187 211.029 168.848C209.697 168.442 208.3 168.292 206.911 168.405H204.902V175.611H205.49C206.622 175.722 207.765 175.579 208.835 175.194C209.235 174.916 209.509 174.107 209.657 172.767C209.689 172.424 209.779 172.253 209.926 172.252C210.106 172.252 210.196 172.4 210.196 172.694C210.196 172.988 210.179 173.421 210.147 173.993C210.115 174.565 210.098 174.998 210.098 175.292C210.098 177.04 210.124 178.241 210.176 178.895C210.189 179.059 210.196 179.197 210.196 179.312C210.196 179.524 210.106 179.63 209.927 179.63C209.813 179.63 209.736 179.561 209.696 179.422C209.656 179.283 209.585 178.83 209.489 178.062C209.487 177.679 209.373 177.306 209.16 176.987C208.948 176.669 208.646 176.42 208.293 176.272C207.537 176.136 206.767 176.087 205.999 176.125H204.902V184.336C207.012 184.405 209.125 184.332 211.225 184.118C212.304 183.876 212.917 182.843 213.063 181.019C213.096 180.617 213.202 180.415 213.382 180.415C213.545 180.415 213.627 180.586 213.627 180.929Z" fill="white"></path><path d="M235.539 184.14C235.539 184.826 234.967 185.169 233.823 185.17C233.229 185.187 232.641 185.05 232.116 184.77C231.592 184.491 231.149 184.08 230.833 183.577C230.548 183.179 230.344 182.729 230.232 182.253C230.142 181.828 230.007 180.75 229.828 179.018C229.825 178.598 229.735 178.184 229.562 177.801C229.388 177.419 229.137 177.077 228.823 176.799C227.982 176.293 227.009 176.05 226.029 176.101V183.822C226.029 184.149 226.29 184.353 226.813 184.435C226.959 184.451 227.335 184.467 227.941 184.483C228.153 184.483 228.259 184.549 228.259 184.68C228.259 184.826 228.12 184.9 227.843 184.9H222.083C221.723 184.9 221.543 184.826 221.543 184.68C221.543 184.565 221.78 184.5 222.255 184.483C223.022 184.467 223.438 184.369 223.504 184.189C223.601 183.88 223.635 183.555 223.603 183.233V169.704C223.603 169.05 223.533 168.659 223.394 168.528C223.001 168.341 222.564 168.264 222.132 168.307C221.723 168.307 221.519 168.233 221.519 168.087C221.519 167.923 221.649 167.841 221.911 167.841C221.985 167.844 222.059 167.852 222.132 167.866L225.392 167.939C225.718 167.939 226.175 167.928 226.764 167.907C227.417 167.863 227.874 167.841 228.137 167.841C229.421 167.772 230.692 168.13 231.752 168.858C232.182 169.174 232.528 169.591 232.761 170.071C232.994 170.552 233.106 171.082 233.088 171.616C233.096 172.162 232.976 172.703 232.738 173.194C232.499 173.686 232.149 174.114 231.715 174.446C230.634 175.25 229.335 175.708 227.99 175.758C227.843 175.774 227.761 175.799 227.745 175.832C227.745 175.897 227.826 175.93 227.99 175.93C229.363 176.041 230.636 176.69 231.532 177.737C232.35 179.252 232.791 180.942 232.818 182.664C232.949 184.008 233.406 184.68 234.191 184.68C234.436 184.68 234.558 184.631 234.558 184.533C234.556 184.514 234.548 184.496 234.534 184.483C234.463 184.346 234.421 184.196 234.411 184.042C234.411 183.699 234.591 183.527 234.951 183.528C235.342 183.528 235.539 183.732 235.539 184.14ZM230.465 171.861C230.465 169.525 229.452 168.356 227.426 168.356C227.044 168.32 226.661 168.396 226.323 168.576C226.215 168.674 226.132 168.796 226.081 168.933C226.03 169.069 226.012 169.216 226.029 169.361V175.586C227.226 175.706 228.427 175.402 229.424 174.728C229.798 174.357 230.086 173.907 230.266 173.411C230.446 172.915 230.514 172.386 230.465 171.861Z" fill="white"></path><path d="M258.799 176.371C258.862 177.652 258.623 178.93 258.099 180.1C257.575 181.27 256.781 182.3 255.784 183.105C254.079 184.36 251.992 184.986 249.878 184.875H243.235C242.925 184.875 242.77 184.794 242.77 184.63C242.77 184.484 243.031 184.41 243.554 184.41C244.224 184.41 244.64 184.288 244.804 184.042C244.894 183.74 244.927 183.424 244.902 183.11V169.9C244.959 169.426 244.895 168.945 244.718 168.502C244.596 168.372 244.175 168.307 243.456 168.307C243.08 168.307 242.892 168.217 242.892 168.037C242.892 167.906 243.031 167.841 243.309 167.841H247.573C249.674 167.746 251.779 167.953 253.823 168.455C255.333 168.966 256.611 169.999 257.427 171.368C258.355 172.869 258.831 174.606 258.799 176.371ZM256.054 176.272C256.054 173.551 255.523 171.556 254.461 170.286C253.828 169.614 253.052 169.093 252.191 168.763C251.329 168.433 250.404 168.302 249.485 168.38C248.803 168.29 248.111 168.41 247.5 168.724C247.358 169.1 247.308 169.505 247.353 169.904V182.984C247.342 183.263 247.354 183.543 247.39 183.82C247.405 183.873 247.432 183.923 247.468 183.965C247.503 184.008 247.548 184.042 247.598 184.066C248.397 184.321 249.237 184.42 250.074 184.36C250.879 184.389 251.681 184.236 252.419 183.913C253.157 183.59 253.813 183.104 254.338 182.492C255.482 181.18 256.054 179.107 256.054 176.272Z" fill="white"></path><path d="M280.441 180.929C280.441 180.995 280.424 181.395 280.392 182.13C280.359 182.865 280.343 183.567 280.343 184.238V185.047C278.741 184.949 275.571 184.9 270.833 184.9H267.769C267.459 184.9 267.304 184.834 267.304 184.702C267.304 184.615 267.353 184.563 267.451 184.549C267.5 184.549 267.81 184.527 268.382 184.483C268.807 184.45 269.064 184.36 269.154 184.213C269.277 183.841 269.323 183.448 269.289 183.057V169.241C269.289 168.766 269.219 168.483 269.081 168.393C268.648 168.263 268.195 168.217 267.745 168.257C267.483 168.257 267.353 168.188 267.353 168.049C267.353 167.91 267.532 167.841 267.892 167.841H278.284C278.735 167.844 279.186 167.811 279.632 167.743C279.665 168.445 279.739 169.417 279.853 170.659L279.951 171.714C279.969 171.819 279.977 171.926 279.975 172.032C279.975 172.196 279.902 172.277 279.755 172.277C279.575 172.277 279.444 172.072 279.363 171.661C279.316 171.113 279.157 170.58 278.895 170.096C278.634 169.612 278.276 169.187 277.843 168.848C276.51 168.442 275.113 168.292 273.725 168.405H271.716V175.611H272.304C273.436 175.722 274.578 175.579 275.649 175.194C276.049 174.916 276.323 174.107 276.471 172.767C276.503 172.424 276.592 172.253 276.74 172.252C276.92 172.252 277.01 172.4 277.01 172.694C277.01 172.988 276.993 173.421 276.961 173.993C276.929 174.565 276.912 174.998 276.912 175.292C276.912 177.04 276.938 178.241 276.99 178.895C277.003 179.059 277.01 179.197 277.01 179.312C277.01 179.524 276.92 179.63 276.741 179.63C276.627 179.63 276.55 179.561 276.51 179.422C276.47 179.283 276.399 178.83 276.303 178.062C276.301 177.679 276.186 177.306 275.974 176.987C275.761 176.669 275.46 176.42 275.107 176.272C274.35 176.136 273.58 176.087 272.813 176.125H271.716V184.336C273.826 184.405 275.938 184.332 278.039 184.118C279.118 183.876 279.73 182.843 279.877 181.019C279.91 180.617 280.016 180.415 280.196 180.415C280.359 180.415 280.44 180.586 280.441 180.929Z" fill="white"></path><path d="M52.0056 117.631V117.612C52.0081 109.815 55.1072 102.338 60.6213 96.8255C66.1354 91.3129 73.6131 88.2161 81.4102 88.2158H52.0056C44.2162 88.2302 36.7507 91.3346 31.2478 96.8476C25.7449 102.361 22.6543 109.832 22.6543 117.621C22.6543 125.411 25.7449 132.882 31.2478 138.395C36.7507 143.908 44.2162 147.012 52.0056 147.027H81.4102C73.613 147.027 66.1351 143.93 60.6208 138.417C55.1066 132.905 52.0079 125.428 52.0056 117.631Z" fill="white"></path><path d="M169.626 117.621V88.216C169.626 84.3544 168.866 80.5307 167.388 76.963C165.91 73.3954 163.744 70.1538 161.013 67.4232C158.283 64.6927 155.041 62.5267 151.474 61.0489C147.906 59.5711 144.082 58.8105 140.221 58.8105C136.359 58.8105 132.535 59.5711 128.968 61.0489C125.4 62.5267 122.158 64.6927 119.428 67.4232C116.697 70.1538 114.531 73.3954 113.054 76.963C111.576 80.5307 110.815 84.3544 110.815 88.216V117.621C110.815 121.483 110.055 125.306 108.577 128.874C107.099 132.442 104.933 135.683 102.203 138.414C99.4722 141.144 96.2306 143.31 92.663 144.788C89.0954 146.266 85.2717 147.026 81.4102 147.026H199.031C195.17 147.026 191.346 146.266 187.778 144.788C184.211 143.31 180.969 141.144 178.239 138.414C175.508 135.683 173.342 132.442 171.864 128.874C170.387 125.306 169.626 121.483 169.626 117.621Z" fill="white"></path><path d="M140.221 58.8108C144.083 58.8108 147.907 58.0502 151.474 56.5724C155.042 55.0946 158.284 52.9286 161.014 50.198C163.745 47.4674 165.911 44.2257 167.388 40.6581C168.866 37.0904 169.627 33.2666 169.626 29.405V0C169.626 7.79869 166.528 15.278 161.014 20.7925C155.499 26.307 148.02 29.405 140.221 29.405C132.423 29.405 124.943 26.307 119.429 20.7925C113.914 15.278 110.816 7.79869 110.816 0V29.405C110.816 33.2666 111.577 37.0904 113.054 40.6581C114.532 44.2257 116.698 47.4674 119.429 50.198C122.159 52.9286 125.401 55.0946 128.968 56.5724C132.536 58.0502 136.36 58.8108 140.221 58.8108Z" fill="white"></path></g><defs><clipPath id="clip0_642_338"><rect width="281" height="186" fill="white"></rect></clipPath></defs></svg> 