<?xml version="1.0" encoding="UTF-8"?> <svg xmlns="http://www.w3.org/2000/svg" width="675" height="72" viewBox="0 0 675 72" fill="none"><rect width="675" height="72" fill="#293031"></rect><rect x="8" y="19" width="661" height="37" fill="#F7F6F5"></rect><path d="M569.124 29.9071L572.155 38.7179H565.914L569.044 29.9071H569.114H569.124ZM174.106 28.115H168.295V34.8551H174.106C176.476 34.8551 177.756 33.8396 177.756 31.4204C177.756 29.0011 176.476 28.115 174.106 28.115ZM364.174 29.9071L361.034 38.7179H367.284L364.244 29.9071H364.174ZM329.829 28.115H324.028V34.8551H329.829C332.199 34.8551 333.479 33.8396 333.479 31.4204C333.479 29.0011 332.199 28.115 329.829 28.115ZM229.254 29.9071L226.113 38.7179H232.364L229.314 29.9071H229.254ZM639.075 29.9071L635.934 38.7179H642.185L639.145 29.9071H639.075ZM35.9453 27.8562C31.1846 27.8562 29.3944 31.8982 29.3944 36.0896C29.3944 40.281 31.1846 44.1239 35.9453 44.1239C40.706 44.1239 42.4963 40.0918 42.4963 36.0896C42.4963 32.0874 40.716 27.8562 35.9453 27.8562ZM675 72H0V0H675V72ZM47.8071 36.0896C47.8071 28.9712 43.4164 23.4159 35.9553 23.4159C28.4942 23.4159 24.1136 28.9613 24.1136 36.0896C24.1136 43.2179 28.5042 48.5642 35.9553 48.5642C43.4064 48.5642 47.8071 43.0188 47.8071 36.0896ZM82.3422 40.8684C82.3422 35.4226 76.9314 34.3175 75.1811 33.8794C69.1302 32.3263 67.9801 32.0973 67.9801 30.2555C67.9801 28.2345 69.9404 27.5177 71.6306 27.5177C74.161 27.5177 76.2213 28.2644 76.3913 31.1615H81.5121C81.5121 25.6161 76.9014 23.4259 71.8606 23.4259C67.5 23.4259 62.8493 25.7854 62.8493 30.6936C62.8493 35.1936 66.4598 36.5774 70.0304 37.5133C73.5809 38.469 77.1914 38.8872 77.1914 41.4856C77.1914 43.9447 74.351 44.4723 72.5007 44.4723C69.6603 44.4723 67.16 43.2378 67.16 40.0321H62.0292C61.9592 45.9558 66.9599 48.5741 72.2907 48.5741C78.8417 48.5741 82.3222 45.2788 82.3222 40.8783M116.267 24.0033H96.5243V28.4436H103.745V47.9967H109.046V28.4436H116.267V24.0033ZM148.772 43.5664H135.78V37.6825H147.462V33.5907H135.78V28.4535H148.512V24.0133H130.479V48.0166H148.782V43.5763L148.772 43.5664ZM183.737 48.0066C182.797 46.6626 182.827 43.8451 182.727 42.3219C182.557 39.9027 181.817 37.3839 179.207 36.7168V36.6471C181.877 35.5819 183.017 33.4513 183.017 30.6339C183.017 27 180.287 24.0033 175.956 24.0033H162.964V48.0066H168.265V38.6283H173.566C176.236 38.6283 177.216 39.7434 177.576 42.2622C177.846 44.1737 177.786 46.4934 178.426 48.0066H183.727H183.737ZM203.25 24.0033H197.949V48.0066H203.25V24.0033ZM241.046 48.0066L232.034 24.0033H226.604L217.452 48.0066H222.823L224.713 42.6704H233.725L235.545 48.0066H241.056H241.046ZM305.795 24.0033H288.843V48.0066H294.144V38.1007H304.245V34.0089H294.144V28.4535H305.795V24.0133V24.0033ZM339.46 48.0066C338.52 46.6626 338.55 43.8451 338.45 42.3219C338.28 39.9027 337.54 37.3839 334.94 36.7168V36.6471C337.6 35.5819 338.75 33.4513 338.75 30.6339C338.75 27 336.02 24.0033 331.689 24.0033H318.697V48.0066H324.008V38.6283H329.309C331.979 38.6283 332.949 39.7434 333.319 42.2622C333.589 44.1737 333.519 46.4934 334.159 48.0066H339.46ZM375.966 48.0066L366.954 24.0033H361.524L352.372 48.0066H357.743L359.633 42.6704H368.645L370.465 48.0066H375.976H375.966ZM409.241 24.0033H404.28V40.1117H404.21L394.148 24.0033H388.888V48.0066H393.848V31.948H393.918L403.95 48.0066H409.261V24.0033H409.241ZM444.586 38.7577H439.455C439.055 41.9237 437.225 44.1438 433.984 44.1438C429.234 44.1438 427.443 40.1117 427.443 36.1095C427.443 32.1073 429.234 27.8761 433.984 27.8761C436.625 27.8761 438.915 29.6881 439.255 32.0774H444.386C443.746 26.5321 439.285 23.4358 433.984 23.4358C426.533 23.4358 422.143 28.9812 422.143 36.1095C422.143 43.2378 426.533 48.5841 433.984 48.5841C439.895 48.5841 444.056 44.7411 444.586 38.7677M475.78 43.5763H462.789V37.6925H474.46V33.6007H462.789V28.4635H475.51V24.0232H457.478V48.0266H475.771V43.5863L475.78 43.5763ZM508.975 40.8883C508.975 35.4425 503.565 34.3374 501.814 33.8993C495.773 32.3462 494.633 32.1173 494.633 30.2754C494.633 28.2544 496.584 27.5376 498.274 27.5376C500.804 27.5376 502.865 28.2843 503.035 31.1814H508.155C508.155 25.6361 503.535 23.4458 498.504 23.4458C494.143 23.4458 489.493 25.8053 489.493 30.7135C489.493 35.2135 493.093 36.5973 496.674 37.5332C500.224 38.4889 503.835 38.9071 503.835 41.5055C503.835 43.9646 500.994 44.4923 499.144 44.4923C496.304 44.4923 493.803 43.2577 493.803 40.052H488.672C488.602 45.9757 493.603 48.594 498.944 48.594C505.495 48.594 508.965 45.2987 508.965 40.8982M544.321 38.7777H539.19C538.79 41.9436 536.97 44.1637 533.719 44.1637C528.958 44.1637 527.168 40.1316 527.168 36.1294C527.168 32.1272 528.958 27.896 533.719 27.896C536.349 27.896 538.66 29.708 538.98 32.0973H544.121C543.48 26.552 539.02 23.4558 533.719 23.4558C526.268 23.4558 521.877 29.0011 521.877 36.1294C521.877 43.2577 526.268 48.604 533.719 48.604C539.63 48.604 543.791 44.7611 544.321 38.7876M580.816 48.0365L571.815 24.0332H566.374L557.223 48.0365H562.583L564.474 42.7002H573.485L575.305 48.0365H580.806H580.816ZM614.091 24.0332H609.13V40.1416H609.06L598.999 24.0332H593.738V48.0365H598.699V31.9779H598.769L608.8 48.0365H614.101V24.0332H614.091ZM650.846 48.0365L641.835 24.0332H636.404L627.253 48.0365H632.624L634.504 42.7002H643.525L645.346 48.0365H650.856H650.846Z" fill="#202123"></path></svg> 